<svg width="60" height="28" viewBox="0 0 60 28" fill="none" xmlns="http://www.w3.org/2000/svg">
<path d="M57.1082 5.99136C57.927 5.99136 58.6131 5.72088 59.1688 5.17747C59.722 4.63405 59.9999 3.95294 59.9999 3.13167C59.9999 2.3104 59.722 1.65633 59.1688 1.10308C58.6155 0.549828 57.927 0.271973 57.1082 0.271973C56.2894 0.271973 55.6083 0.549828 55.0649 1.10308C54.5215 1.65879 54.251 2.33498 54.251 3.13167C54.251 3.92835 54.5215 4.63405 55.0649 5.17747C55.6083 5.72088 56.2894 5.99136 57.1082 5.99136Z" fill="#3179FF"/>
<path d="M34.6186 24.3506C33.8342 24.3506 33.1605 23.8686 32.8752 23.1875H29.6836C30.0377 25.5997 32.113 27.4611 34.6186 27.4611C37.1242 27.4611 39.1995 25.5997 39.5536 23.1875H36.3619C36.0767 23.8711 35.403 24.3506 34.6186 24.3506Z" fill="#FF5947"/>
<path d="M48.9639 21.6454L44.265 8.95996H40.3431L35.6343 21.6651H40.1021L42.3028 15.4416L44.5035 21.6651H44.5109L46.1534 26.3148H50.7024L48.9713 21.6454H48.9639Z" fill="#3179FF"/>
<path d="M28.8918 8.95996H24.9699L20.2635 21.6651H20.2611L18.5325 26.3345H23.0814L24.7313 21.6651L26.9321 15.4416L29.1328 21.6651H33.6006L28.8918 8.95996Z" fill="#3179FF"/>
<path d="M9.63641 22.9949C8.1414 22.9949 6.96113 22.626 6.09806 21.8908C5.23499 21.1532 4.72108 20.0958 4.55633 18.7164V18.682H15.3804C15.4492 18.1213 15.4861 17.5238 15.4861 16.8919C15.4861 16.4173 15.464 15.9624 15.4197 15.5247C15.2255 13.5503 14.5935 11.9618 13.5239 10.7545C12.2158 9.28161 10.4405 8.54395 8.19795 8.54395C5.74644 8.54395 3.76703 9.38489 2.25972 11.0692C1.18765 12.2692 0.496697 13.7543 0.189335 15.5223C0.0639312 16.2354 0 16.9952 0 17.8017C0 18.0697 0.00983558 18.3303 0.0245889 18.5861C0.0245889 18.5861 0.0245889 18.6057 0.0245889 18.6131C0.0245889 18.6352 0.0245889 18.6549 0.0270478 18.677C0.196712 21.0056 1.00077 22.9604 2.42939 24.3596C4.05226 25.9505 6.26526 26.7447 9.0684 26.7447C11.5912 26.7447 13.7969 26.125 15.6902 24.8858L14.7804 21.3425C13.2608 22.4416 11.5445 22.99 9.63149 22.99L9.63641 22.9949ZM8.09468 12.0872C8.98234 12.0872 9.69542 12.402 10.2315 13.0339C10.7675 13.6658 11.0478 14.4945 11.0724 15.5247H4.66206C5.10466 13.2331 6.25051 12.0872 8.09468 12.0872Z" fill="#3179FF"/>
<path d="M59.385 8.95996H53.6238V12.4836H55.0794V26.3345H59.385V11.7975V8.95996Z" fill="#3179FF"/>
</svg>
